<?xml version="1.0" standalone="no"?>
<!DOCTYPE svg PUBLIC "-//W3C//DTD SVG 20010904//EN"
 "http://www.w3.org/TR/2001/REC-SVG-20010904/DTD/svg10.dtd">
<svg version="1.0" xmlns="http://www.w3.org/2000/svg"
 width="16.000000pt" height="16.000000pt" viewBox="0 0 16.000000 16.000000"
 preserveAspectRatio="xMidYMid meet">
<metadata>
Created by potrace 1.11, written by Peter Selinger 2001-2013
</metadata>
<g transform="translate(0.000000,16.000000) scale(0.003941,-0.003941)"
fill="#000000" stroke="none">
<path d="M578 4040 c-276 -68 -488 -284 -558 -568 -17 -74 -18 -146 -19 -1641
l-1 -1565 137 141 c76 78 343 350 594 605 251 254 524 531 605 615 82 83 356
361 609 618 253 257 537 545 630 640 304 310 1028 1046 1088 1105 31 31 57 60
57 64 0 3 -690 6 -1532 5 -1465 -1 -1536 -1 -1610 -19z"/>
<path d="M3838 3567 c-321 -327 -544 -554 -1108 -1127 -279 -283 -570 -579
-646 -657 -77 -77 -330 -335 -564 -573 -234 -237 -501 -509 -593 -603 -93 -95
-265 -270 -384 -390 l-215 -217 1533 0 c1326 0 1543 2 1599 15 298 69 509 281
587 590 7 29 16 2375 11 2912 l-3 271 -217 -221z"/>
</g>
</svg>
