<?xml version="1.0" standalone="no"?>
<!DOCTYPE svg PUBLIC "-//W3C//DTD SVG 20010904//EN"
 "http://www.w3.org/TR/2001/REC-SVG-20010904/DTD/svg10.dtd">
<svg version="1.0" xmlns="http://www.w3.org/2000/svg"
 width="16.000000pt" height="16.000000pt" viewBox="0 0 16.000000 16.000000"
 preserveAspectRatio="xMidYMid meet">
<metadata>
Created by potrace 1.11, written by Peter Selinger 2001-2013
</metadata>
<g transform="translate(0.000000,16.000000) scale(0.003922,-0.003922)"
fill="#000000" stroke="none">
<path d="M1869 4066 c-2 -2 -29 -6 -59 -10 -220 -24 -525 -114 -685 -201 -22
-12 -67 -37 -100 -55 -72 -39 -233 -149 -283 -193 -192 -169 -291 -280 -414
-465 -139 -211 -268 -534 -293 -733 -4 -30 -9 -57 -11 -60 -18 -30 -26 -408
-11 -544 37 -334 174 -680 382 -966 93 -127 236 -276 365 -380 497 -400 1166
-543 1793 -384 208 53 423 149 608 271 435 286 739 716 863 1219 18 76 28 132
45 260 8 68 7 404 -2 455 -3 14 -8 48 -11 75 -10 76 -43 210 -77 314 -109 332
-298 624 -566 872 -64 58 -228 185 -278 213 -17 9 -57 32 -90 52 -192 111
-442 198 -685 239 -85 15 -479 32 -491 21z m461 -506 c375 -81 657 -256 930
-575 83 -97 196 -300 251 -447 31 -86 38 -111 71 -258 7 -32 12 -133 12 -240
1 -158 -2 -200 -22 -288 -77 -346 -250 -640 -512 -869 -372 -327 -848 -461
-1308 -367 -459 93 -881 419 -1101 849 -65 129 -124 298 -137 395 -3 25 -8 47
-9 50 -8 13 -18 141 -18 225 0 236 47 433 159 660 179 363 485 644 866 794 99
39 258 79 343 87 39 4 72 8 74 11 14 12 316 -8 401 -27z"/>
</g>
</svg>
